<?xml version="1.0"?>
<svg xmlns="http://www.w3.org/2000/svg" height="512px" viewBox="0 0 464 464" width="512px" class=""><g><path d="m264 304h32v32h-32zm0 0" data-original="#000000" class="active-path" data-old_color="#e20074" fill="#e20074"/><path d="m120 384v-144h-48v192h-16l40 30 40-30h-16zm0 0" data-original="#000000" class="active-path" data-old_color="#e20074" fill="#e20074"/><path d="m136 368h192v-256h-192zm176-16h-64v-64h64zm0-144h-72v-16h72zm0-32h-72v-16h72zm-160-48h160v16h-160zm0 32h72v16h-72zm0 32h72v16h-72zm0 32h160v16h-160zm0 32h160v16h-160zm0 40h80v16h-80zm0 32h80v16h-80zm0 0" data-original="#000000" class="active-path" data-old_color="#e20074" fill="#e20074"/><path d="m433.015625 145.0625-9.335937-2.160156 3.792968-8.796875c3.007813-6.984375 4.527344-14.425781 4.527344-22.105469 0-30.878906-25.121094-56-56-56-7.039062 0-13.894531 1.289062-20.375 3.824219l-6.65625 2.222656-3.25-5.710937c-8.535156-15.007813-24.519531-24.335938-41.71875-24.335938-11.121094 0-21.601562 3.769531-30.3125 10.886719l-6.824219 5.59375-5.414062-8.242188c-14.609375-25.023437-41.015625-40.238281-69.449219-40.238281-34.128906 0-64.511719 21.726562-75.609375 54.0625l-2.574219 7.503906-8.089844-2.695312c-5.695312-1.910156-11.65625-2.871094-17.726562-2.871094-30.878906 0-56 25.121094-56 56 0 7.679688 1.519531 15.121094 4.527344 22.113281l3.792968 8.796875-9.335937 2.160156c-18.25 4.203126-30.984375 20.210938-30.984375 38.929688 0 22.054688 17.945312 40 40 40h80v-128h224v120l24-18 34.664062 26h21.335938c22.054688 0 40-17.945312 40-40 0-18.71875-12.734375-34.726562-30.984375-38.9375zm0 0" data-original="#000000" class="active-path" data-old_color="#e20074" fill="#e20074"/><path d="m344 236v228h48v-216h16l-40-30zm0 0" data-original="#000000" class="active-path" data-old_color="#e20074" fill="#e20074"/><script xmlns="" class="active-path" style="fill:#E20074" data-old_color="#e20074"/></g> </svg>
